<?xml version="1.0" standalone="no"?>
<!DOCTYPE svg PUBLIC "-//W3C//DTD SVG 20010904//EN"
 "http://www.w3.org/TR/2001/REC-SVG-20010904/DTD/svg10.dtd">
<svg version="1.0" xmlns="http://www.w3.org/2000/svg"
 width="400.000000pt" height="400.000000pt" viewBox="0 0 400.000000 400.000000"
 preserveAspectRatio="xMidYMid meet">
<metadata>
Created by potrace 1.11, written by Peter Selinger 2001-2013
</metadata>
<g transform="translate(0.000000,400.000000) scale(0.100000,-0.100000)"
fill="#000000" stroke="none">
<path d="M0 2000 l0 -2000 2000 0 2000 0 0 2000 0 2000 -747 0 -748 0 -115
-35 c-128 -39 -134 -40 -124 -24 4 7 1 10 -7 7 -8 -3 -13 -11 -11 -18 1 -7 -4
-9 -17 -5 -12 3 -21 0 -25 -10 -7 -20 -26 -19 -26 1 0 9 26 27 65 45 36 17 65
33 65 35 0 2 -520 4 -1155 4 l-1155 0 0 -2000z m2165 1891 c-6 -4 -23 -11 -40
-15 l-30 -6 25 15 c27 16 60 21 45 6z m-1258 -263 c-2 -13 -4 -3 -4 22 0 25 2
35 4 23 2 -13 2 -33 0 -45z m857 2 c16 -6 26 -17 26 -30 0 -16 7 -20 35 -20
52 0 46 -26 -7 -33 -25 -3 -48 -13 -56 -24 -7 -10 -28 -39 -47 -66 -39 -53
-41 -57 -22 -57 8 0 19 11 25 25 14 30 36 34 27 5 -8 -27 11 -26 26 1 8 15 8
24 0 32 -26 26 2 37 40 16 19 -10 20 -12 4 -36 -16 -24 -16 -25 2 -20 18 6
141 11 176 8 9 0 17 -8 17 -17 0 -13 -10 -14 -67 -9 -38 3 -88 2 -113 -2 -41
-8 -45 -11 -45 -37 0 -18 -9 -35 -27 -50 l-28 -21 41 3 c50 5 51 -17 1 -30
-23 -6 -32 -14 -32 -29 0 -19 4 -20 58 -13 81 12 125 11 129 -2 2 -7 -27 -13
-83 -18 -47 -3 -90 -9 -95 -12 -5 -3 -9 -31 -10 -62 -1 -31 -4 -68 -8 -82 -10
-37 -42 -32 -63 9 -18 35 -15 60 3 28 18 -32 29 -17 29 38 0 30 -4 55 -9 55
-39 0 -71 -14 -71 -32 0 -17 3 -18 15 -8 12 10 15 10 15 -3 0 -9 -14 -26 -31
-38 -25 -17 -33 -19 -39 -8 -5 7 -4 21 2 32 15 29 2 32 -56 14 -63 -20 -69
-21 -64 -5 2 6 56 25 119 42 100 27 114 34 117 54 3 20 0 22 -25 16 -15 -3
-34 -14 -41 -23 -12 -15 -14 -14 -27 3 -8 10 -22 40 -31 66 l-17 48 -69 -24
c-37 -14 -73 -22 -78 -19 -17 11 -11 25 11 25 41 0 122 33 127 52 5 21 13 23
29 7 6 -6 25 -8 49 -3 30 5 34 9 19 14 -13 4 -15 9 -7 14 17 10 15 36 -2 36
-7 0 -16 9 -19 20 -4 16 -11 19 -36 14 -38 -8 -43 13 -6 22 27 7 33 32 13 52
-14 14 -11 17 21 27 19 6 23 4 18 -8 -3 -8 0 -22 6 -31 11 -14 17 -14 57 -2
l45 14 -2 46 c-1 25 0 46 2 46 2 0 15 -4 29 -10z m-1253 -93 c-2 -48 0 -87 5
-87 4 0 31 7 59 16 55 18 105 13 105 -9 0 -7 -20 -33 -45 -57 -50 -49 -55 -60
-25 -60 11 0 20 -6 20 -14 0 -9 -19 -16 -60 -20 l-60 -7 0 -127 c0 -126 -7
-161 -29 -148 -7 5 -11 51 -11 132 0 68 -2 124 -5 124 -3 0 -22 -7 -42 -15
-47 -20 -70 -20 -54 -1 9 11 7 26 -9 67 -24 65 -24 61 -2 57 10 -2 42 8 70 21
l52 24 0 84 c0 67 -3 83 -15 83 -21 0 -19 17 3 23 44 12 47 6 43 -86z m793 67
c9 -3 16 -12 16 -20 0 -10 -18 -13 -77 -12 -95 2 -195 -24 -186 -48 3 -9 -7
-28 -28 -50 l-33 -34 32 0 c40 0 42 -19 2 -26 -16 -4 -30 -11 -30 -16 0 -5 13
-7 30 -3 23 5 30 3 30 -8 0 -8 -13 -20 -30 -27 -16 -7 -30 -19 -30 -26 0 -18
21 -18 46 1 10 8 29 15 42 15 19 0 22 5 22 38 0 20 3 47 6 59 5 18 1 22 -20
25 -45 5 -33 23 18 26 l48 3 -5 -33 c-4 -18 -9 -63 -13 -100 l-7 -68 37 0 c20
0 36 -4 36 -10 0 -5 -14 -32 -31 -60 -17 -28 -30 -52 -28 -53 2 -1 22 -11 44
-22 53 -27 116 -90 109 -110 -9 -23 -94 -18 -94 6 0 5 9 9 20 9 11 0 20 4 20
8 0 18 -88 82 -113 82 -7 0 -24 -11 -36 -24 -46 -49 -108 -57 -145 -20 -23 23
-19 40 4 19 27 -24 74 -23 108 2 38 29 34 46 -14 57 -39 8 -45 5 -128 -48 -48
-31 -93 -56 -101 -56 -7 0 30 43 83 96 97 96 108 124 35 86 -157 -83 -177 -40
-26 56 32 20 43 33 43 52 0 44 19 93 47 122 14 15 24 30 21 33 -3 3 -44 -8
-92 -26 -70 -25 -89 -29 -101 -19 -20 17 -19 34 1 26 9 -4 76 12 148 35 206
66 276 80 320 63z m-948 -49 c7 -18 5 -23 -55 -109 -47 -67 -47 -70 -35 -105
7 -20 13 -48 14 -63 0 -29 15 -46 23 -26 9 27 16 0 8 -33 -5 -19 -12 -46 -15
-61 -9 -39 -36 -37 -36 3 0 32 -21 171 -26 178 -2 2 -12 -4 -23 -13 -39 -36
-30 5 15 66 54 74 93 148 87 166 -7 18 36 15 43 -3z m2437 -312 c57 -14 79
-25 114 -58 26 -25 45 -54 49 -74 6 -29 16 -37 108 -81 132 -64 206 -82 333
-82 93 0 107 2 168 31 88 41 160 102 197 168 31 55 48 61 48 16 0 -66 -68
-136 -180 -187 -185 -84 -373 -76 -589 25 -84 39 -100 39 -101 3 0 -15 -38
-48 -77 -68 -103 -52 -278 18 -256 102 8 32 55 55 87 42 32 -12 33 -22 4 -35
-30 -13 -37 -64 -12 -82 24 -17 86 -16 130 2 39 16 68 47 83 86 9 26 7 28 -67
63 -108 50 -219 76 -332 79 -92 2 -98 1 -189 -40 -109 -49 -237 -124 -290
-170 l-36 -32 60 24 c99 40 189 31 239 -24 30 -33 33 -141 6 -221 -58 -174
-203 -307 -372 -341 -47 -10 -65 -9 -103 4 l-47 15 4 -158 c1 -87 6 -161 9
-164 3 -3 46 3 95 14 89 20 204 27 204 13 0 -5 -64 -21 -143 -36 -78 -16 -144
-30 -146 -33 -14 -14 16 -12 90 6 170 40 364 45 429 10 13 -7 57 -4 147 11
175 30 425 32 535 5 101 -25 174 -69 216 -130 35 -53 40 -88 17 -141 -12 -30
-59 -64 -71 -52 -2 2 2 19 8 39 24 80 -17 151 -120 206 -84 45 -167 62 -304
62 -100 0 -303 -21 -346 -36 -10 -3 -7 -12 11 -33 107 -128 -39 -346 -287
-428 -73 -24 -95 -27 -226 -27 -131 0 -153 3 -225 27 -150 50 -234 128 -257
238 -7 33 -15 59 -18 59 -3 0 -46 -14 -96 -30 -243 -83 -466 -123 -684 -123
-223 -1 -365 36 -430 110 -39 44 -42 108 -6 150 l24 28 7 -40 c11 -57 40 -110
74 -134 143 -102 481 -110 810 -20 218 59 321 101 321 129 0 4 -67 -10 -149
-31 -172 -44 -394 -79 -501 -79 -246 1 -410 86 -410 214 0 48 16 79 52 100 36
22 42 17 28 -18 -28 -75 2 -141 90 -194 77 -46 110 -54 238 -59 150 -7 335 23
591 94 l64 18 32 75 c43 103 96 206 167 323 32 54 58 103 56 109 -2 5 -28 -23
-58 -63 -175 -235 -350 -378 -481 -393 -24 -3 -67 -8 -95 -12 -44 -5 -54 -3
-78 18 -21 18 -29 35 -34 73 -3 33 -12 55 -24 63 -32 23 -48 68 -48 135 0 122
59 239 185 365 40 39 89 79 109 87 42 18 99 19 125 3 16 -10 24 -7 51 16 77
65 174 93 220 64 15 -10 22 -9 37 4 10 9 90 52 179 95 88 43 178 92 199 109
82 63 191 120 295 153 19 6 85 18 145 26 61 9 130 19 155 24 76 14 169 12 243
-6z m-939 -102 c33 -18 45 -41 22 -41 -18 0 -95 51 -96 63 0 11 36 0 74 -22z
m791 -1376 c-16 -8 -37 -14 -45 -14 -8 0 1 7 20 14 46 18 64 17 25 0z m-175
-60 c-33 -19 -50 -18 -26 0 11 8 27 15 35 15 10 -1 7 -6 -9 -15z m1000 -426
c0 -182 1 -191 20 -196 34 -9 22 -21 -27 -29 -32 -5 -48 -3 -51 5 -3 8 -10 6
-25 -4 -70 -49 -167 23 -167 125 0 94 59 154 143 147 l47 -4 0 54 c0 51 -1 54
-30 60 -59 11 -30 26 63 31 l27 2 0 -191z m-1700 156 c18 -9 29 -10 38 -3 17
15 19 12 25 -59 6 -79 -10 -84 -40 -13 -24 58 -58 79 -101 64 -15 -5 -31 -21
-36 -37 -17 -47 8 -75 99 -117 84 -37 86 -40 93 -107 3 -36 0 -46 -30 -78 -41
-44 -101 -57 -160 -32 -26 11 -39 12 -47 4 -16 -16 -18 -9 -23 61 -5 73 11 84
35 23 29 -71 94 -101 145 -65 15 10 22 25 22 49 0 54 -9 66 -79 97 -93 41
-111 61 -111 118 0 38 5 51 28 72 15 14 34 28 42 31 28 10 75 6 100 -8z
m-1355 -9 c54 -23 69 -70 40 -126 -8 -15 -28 -34 -45 -42 -17 -7 -28 -18 -26
-24 13 -34 105 -146 129 -157 41 -18 33 -27 -27 -27 -40 0 -55 4 -60 16 -15
40 -113 164 -129 164 -16 0 -18 -9 -15 -77 3 -72 5 -78 26 -81 12 -2 22 -8 22
-13 0 -5 -36 -9 -80 -9 -81 0 -98 7 -57 25 21 10 22 15 25 168 l3 157 -26 12
c-14 6 -25 15 -25 20 0 14 207 9 245 -6z m1555 -66 l0 -40 40 0 c29 0 40 -4
40 -15 0 -10 -11 -15 -35 -15 -21 0 -35 -5 -36 -12 -4 -48 1 -189 6 -198 3 -5
19 -10 35 -10 36 0 47 -16 17 -24 -40 -11 -80 -6 -99 11 -15 14 -18 32 -18
125 l0 108 -25 0 c-16 0 -25 6 -25 15 0 9 9 15 25 15 23 0 25 4 25 40 0 36 3
40 25 40 23 0 25 -4 25 -40z m-959 -49 c22 -17 24 -29 29 -128 5 -103 6 -108
28 -111 26 -4 29 -17 6 -26 -27 -10 -57 -7 -75 10 -16 15 -20 15 -41 0 -53
-37 -128 -7 -128 52 0 38 33 67 101 91 51 17 54 20 52 50 -1 42 -20 63 -52 59
-18 -2 -26 -9 -26 -23 0 -28 -13 -45 -35 -45 -21 0 -32 23 -23 46 16 41 124
57 164 25z m189 -1 c0 -20 0 -20 33 0 46 29 91 26 116 -6 18 -23 21 -41 21
-126 0 -91 2 -100 20 -105 43 -11 17 -23 -50 -23 -72 0 -87 8 -47 25 20 9 22
16 22 102 0 104 -13 131 -58 119 -48 -12 -57 -31 -57 -122 0 -73 3 -85 20 -96
34 -21 23 -28 -45 -28 -63 0 -86 12 -45 23 18 5 20 14 20 106 0 90 -2 102 -20
113 -26 17 -25 26 3 31 52 10 67 7 67 -13z m1081 -3 c44 -29 59 -60 59 -122 0
-111 -98 -178 -191 -130 -88 46 -93 202 -7 255 44 27 97 26 139 -3z m189 2 l0
-20 26 20 c15 12 37 21 50 21 28 0 48 -32 39 -61 -9 -28 -49 -22 -53 9 -4 28
-16 28 -42 0 -17 -18 -20 -35 -20 -103 0 -84 9 -105 42 -105 10 0 18 -4 18
-10 0 -6 -32 -10 -75 -10 -71 0 -99 11 -55 23 18 5 20 14 20 106 0 90 -2 102
-20 113 -26 17 -25 26 3 31 53 10 67 7 67 -14z m230 1 c0 -20 0 -20 33 0 41
25 78 25 108 1 22 -18 24 -28 27 -126 4 -96 6 -108 23 -112 42 -11 15 -23 -51
-23 -72 0 -87 8 -47 25 20 9 22 18 25 90 1 50 -3 89 -11 105 -17 33 -59 38
-86 11 -18 -18 -21 -34 -21 -106 0 -74 3 -86 20 -97 34 -21 23 -28 -45 -28
-63 0 -86 12 -45 23 18 5 20 14 20 106 0 90 -2 102 -20 113 -26 17 -25 26 3
31 52 10 67 7 67 -13z m425 -5 c23 -22 25 -31 25 -125 0 -94 2 -102 20 -107
12 -3 19 -11 17 -17 -6 -18 -57 -19 -77 -1 -17 16 -21 16 -42 1 -53 -37 -128
-7 -128 52 0 38 33 67 101 91 51 17 54 20 52 50 -1 42 -20 63 -52 59 -20 -2
-27 -10 -31 -33 -6 -34 -43 -48 -53 -21 -15 40 35 75 106 76 27 0 45 -7 62
-25z m606 10 c88 -46 93 -202 7 -255 -89 -54 -198 10 -198 118 0 116 96 185
191 137z m-3081 -1 c0 -4 -7 -12 -15 -18 -12 -9 -10 -22 17 -88 17 -43 34 -75
38 -73 5 3 21 37 36 76 26 65 27 72 11 80 -31 18 -18 29 33 29 28 0 50 -3 50
-6 0 -4 -10 -16 -23 -28 -13 -12 -49 -83 -81 -159 -62 -146 -98 -197 -139
-197 -29 0 -52 23 -43 45 7 20 35 19 57 -1 16 -14 19 -12 44 30 l26 45 -46
113 c-25 62 -55 119 -65 127 -33 23 -23 31 40 31 33 0 60 -3 60 -6z m574 -476
c-4 -13 -26 -74 -50 -136 l-42 -113 50 3 51 3 47 130 c26 71 53 131 60 133 15
5 12 -4 -45 -156 l-43 -112 685 2 686 3 47 130 c26 71 53 131 60 133 15 5 12
-4 -45 -155 l-43 -113 639 0 c419 0 639 -3 639 -10 0 -7 -583 -10 -1730 -10
-1147 0 -1730 3 -1730 10 0 6 77 10 210 10 l210 0 0 95 c0 57 4 95 10 95 6 0
10 -5 10 -10 0 -7 6 -7 19 0 47 25 81 -1 81 -62 0 -64 -52 -102 -88 -66 -9 9
-12 5 -12 -20 l0 -33 106 3 106 3 44 120 c25 66 47 126 49 133 8 23 27 13 19
-10z m-714 -32 l0 -44 30 11 c44 17 63 -6 68 -83 4 -50 2 -60 -12 -60 -13 0
-16 11 -16 60 0 47 -4 62 -16 67 -32 12 -49 -11 -52 -71 -5 -101 -22 -60 -22
54 0 67 4 110 10 110 6 0 10 -20 10 -44z m1040 -1 c0 -42 2 -45 19 -35 47 25
81 -1 81 -62 0 -64 -52 -102 -88 -66 -9 9 -12 9 -12 0 0 -7 -4 -12 -10 -12 -6
0 -10 43 -10 110 0 67 4 110 10 110 6 0 10 -20 10 -45z m2170 -67 c0 -75 -3
-108 -10 -98 -7 12 -12 12 -22 2 -34 -34 -88 1 -88 57 0 64 52 105 88 69 9 -9
12 -2 12 35 0 26 5 47 10 47 6 0 10 -44 10 -112z m-3030 62 c0 -13 7 -20 20
-20 11 0 20 -4 20 -10 0 -5 -9 -10 -20 -10 -18 0 -20 -7 -20 -55 0 -49 2 -55
21 -55 11 0 17 -4 14 -10 -10 -17 -44 -11 -55 9 -5 11 -10 40 -10 65 0 26 -5
47 -12 50 -10 5 -10 7 0 12 6 3 12 14 12 25 0 10 7 19 15 19 8 0 15 -9 15 -20z
m110 0 c0 -13 7 -20 20 -20 11 0 20 -4 20 -10 0 -5 -9 -10 -20 -10 -18 0 -20
-7 -20 -55 0 -49 2 -55 21 -55 11 0 17 -4 14 -10 -10 -17 -44 -11 -55 9 -5 11
-10 40 -10 65 0 26 -5 47 -12 50 -10 5 -10 7 0 12 6 3 12 14 12 25 0 10 7 19
15 19 8 0 15 -9 15 -20z m1270 0 c0 -13 7 -20 20 -20 11 0 20 -4 20 -10 0 -5
-9 -10 -20 -10 -18 0 -20 -7 -20 -55 0 -49 2 -55 21 -55 11 0 17 -4 14 -10
-10 -17 -44 -11 -55 9 -5 11 -10 40 -10 65 0 26 -5 47 -12 50 -10 5 -10 7 0
12 6 3 12 14 12 25 0 10 7 19 15 19 8 0 15 -9 15 -20z m860 0 c0 -13 7 -20 20
-20 11 0 20 -4 20 -10 0 -5 -9 -10 -20 -10 -18 0 -20 -7 -20 -55 0 -49 2 -55
21 -55 11 0 17 -4 14 -10 -10 -17 -44 -11 -55 9 -5 11 -10 40 -10 65 0 26 -5
47 -12 50 -10 5 -10 7 0 12 6 3 12 14 12 25 0 10 7 19 15 19 8 0 15 -9 15 -20z
m-1850 -40 c0 -21 -15 -27 -25 -10 -7 12 2 30 16 30 5 0 9 -9 9 -20z m384 4
c11 -10 16 -34 16 -73 l0 -57 -42 -1 c-49 -2 -68 10 -68 43 0 25 26 44 60 44
15 0 20 5 18 18 -3 13 -13 17 -41 16 -36 -1 -49 9 -24 19 26 11 66 6 81 -9z
m340 -3 c26 -29 24 -91 -4 -113 -49 -40 -110 -11 -110 53 0 69 72 107 114 60z
m86 -41 c0 -47 4 -62 16 -67 32 -12 49 11 52 71 4 83 22 68 22 -19 0 -43 -4
-75 -10 -75 -5 0 -10 5 -10 12 0 9 -3 9 -12 0 -7 -7 -21 -12 -33 -12 -12 0
-26 5 -33 12 -15 15 -16 138 -2 138 6 0 10 -27 10 -60z m360 50 c0 -6 10 -5
26 2 19 9 30 9 44 0 14 -8 26 -8 49 1 45 17 63 -6 69 -83 4 -50 2 -60 -12 -60
-13 0 -16 11 -16 60 0 66 -12 80 -49 60 -17 -9 -21 -20 -21 -65 0 -30 -4 -55
-10 -55 -6 0 -10 27 -10 60 0 47 -4 62 -16 67 -32 12 -49 -11 -52 -71 -4 -83
-22 -68 -22 19 0 43 4 75 10 75 6 0 10 -4 10 -10z m334 -6 c9 -8 16 -26 16
-40 0 -22 -4 -24 -50 -24 -36 0 -50 -4 -50 -14 0 -24 28 -39 65 -33 35 6 48
-6 19 -17 -27 -10 -59 -7 -82 10 -29 20 -31 85 -2 114 24 24 63 26 84 4z m263
1 c2 -6 -11 -10 -29 -10 -44 0 -47 -22 -4 -40 27 -11 36 -21 36 -39 0 -31 -22
-48 -56 -44 -39 4 -40 23 -2 23 45 0 48 27 6 46 -36 15 -47 41 -27 65 13 16
70 16 76 -1z m267 -4 c26 -29 24 -91 -4 -113 -49 -40 -110 -11 -110 53 0 69
72 107 114 60z m86 7 c0 -9 3 -9 12 0 13 13 38 16 38 4 0 -4 -10 -12 -22 -17
-19 -8 -23 -19 -26 -67 -4 -85 -22 -71 -22 17 0 43 4 75 10 75 6 0 10 -5 10
-12z m110 3 c0 -5 13 -4 30 2 44 17 63 -6 68 -83 4 -50 2 -60 -12 -60 -13 0
-16 11 -16 60 0 47 -4 62 -16 67 -32 12 -49 -11 -52 -71 -4 -83 -22 -68 -22
19 0 43 4 75 10 75 6 0 10 -4 10 -9z m234 -7 c18 -18 23 -134 6 -134 -5 0 -10
5 -10 10 0 6 -7 6 -18 -1 -11 -7 -31 -9 -45 -5 -22 5 -27 12 -27 36 0 31 22
50 60 50 15 0 20 5 18 18 -3 13 -13 17 -41 16 -36 -1 -49 9 -24 19 26 11 66 6
81 -9z m340 -3 c26 -29 24 -91 -4 -113 -49 -40 -110 -11 -110 53 0 69 72 107
114 60z m-2804 -111 c0 -21 -15 -27 -25 -10 -7 12 2 30 16 30 5 0 9 -9 9 -20z
m1095 0 c0 -7 -6 -15 -12 -17 -8 -3 -13 4 -13 17 0 13 5 20 13 18 6 -3 12 -11
12 -18z"/>
<path d="M1678 3508 c-22 -7 -28 -16 -28 -39 0 -39 20 -37 48 6 32 50 30 52
-20 33z"/>
<path d="M1715 3369 c-4 -6 -5 -13 -2 -16 7 -7 27 6 27 18 0 12 -17 12 -25 -2z"/>
<path d="M1623 3358 c-18 -5 -33 -10 -33 -12 0 -14 24 -66 30 -66 4 0 11 10
15 23 8 21 8 21 12 -5 5 -34 9 -35 58 -1 25 17 34 28 25 31 -7 3 -19 -3 -26
-13 -14 -19 -34 -12 -34 13 0 31 -13 39 -47 30z"/>
<path d="M553 3433 c-43 -15 -43 -15 -43 -64 0 -51 10 -61 34 -31 8 9 31 37
50 60 20 24 36 46 36 48 0 8 -36 2 -77 -13z"/>
<path d="M432 3384 c-38 -23 -43 -29 -37 -53 9 -37 18 -43 48 -32 19 7 28 20
32 45 12 63 5 69 -43 40z"/>
<path d="M1042 3287 c-72 -72 -70 -101 3 -54 28 17 34 27 30 45 -4 15 -1 22
10 22 8 0 15 9 15 20 0 11 -1 20 -3 20 -1 0 -26 -24 -55 -53z"/>
<path d="M898 3291 c-64 -41 -68 -54 -8 -29 28 12 55 29 61 40 14 25 0 23 -53
-11z"/>
<path d="M1136 3261 c-4 -5 -27 -19 -52 -31 -25 -12 -44 -23 -42 -25 2 -1 19
-5 40 -9 33 -6 38 -4 57 27 12 19 21 37 21 41 0 9 -18 7 -24 -3z"/>
<path d="M939 3173 c-13 -17 -13 -17 6 -3 11 8 22 16 24 17 2 2 0 3 -6 3 -6 0
-17 -8 -24 -17z"/>
<path d="M2565 3231 c-39 -6 -38 -7 25 -13 83 -9 171 -32 239 -64 30 -13 56
-23 58 -21 9 10 -41 57 -80 75 -46 23 -175 35 -242 23z"/>
<path d="M2168 3136 c-115 -50 -171 -85 -164 -103 3 -8 6 -16 6 -19 0 -2 33
17 73 43 39 26 101 61 137 79 86 43 47 43 -52 0z"/>
<path d="M2115 2951 c-51 -13 -60 -22 -169 -166 -98 -131 -103 -140 -80 -143
36 -5 29 -22 -10 -22 -28 0 -38 -6 -60 -40 -30 -46 -32 -71 -10 -105 48 -73
228 18 343 174 81 108 109 201 80 264 -9 20 -52 51 -62 46 -1 -1 -16 -4 -32
-8z"/>
<path d="M1705 2846 c-138 -60 -138 -61 -170 -171 -52 -182 -245 -430 -391
-501 -42 -20 -78 -30 -126 -32 -67 -4 -68 -5 -68 -33 0 -32 31 -69 58 -69 33
0 62 12 62 26 0 8 6 11 15 8 47 -18 189 131 414 436 67 91 155 209 196 263 41
53 71 97 67 96 -4 0 -29 -11 -57 -23z"/>
<path d="M1889 2803 c-13 -16 -12 -17 4 -4 9 7 17 15 17 17 0 8 -8 3 -21 -13z"/>
<path d="M1400 2790 c-77 -42 -93 -62 -95 -121 -2 -73 -33 -136 -108 -216 -65
-69 -106 -96 -131 -87 -35 13 -5 77 31 68 45 -12 163 133 178 219 4 21 3 37
-2 37 -14 0 -111 -104 -160 -171 -73 -99 -162 -301 -148 -337 8 -21 99 -11
161 18 56 27 202 168 252 243 59 88 112 212 112 261 0 17 -9 11 -51 -29 -88
-87 -121 -165 -70 -165 11 0 23 -4 26 -10 3 -5 0 -10 -9 -10 -8 0 -21 -3 -29
-6 -8 -3 -22 3 -32 12 -38 38 3 119 113 228 33 33 58 65 55 73 -7 19 -52 15
-93 -7z"/>
<path d="M1135 2708 c-66 -34 -170 -149 -212 -235 -35 -70 -38 -84 -38 -159 0
-67 4 -86 19 -103 l19 -21 22 67 c44 137 148 304 254 408 28 27 51 53 51 57 0
16 -76 7 -115 -14z"/>
<path d="M1623 2322 c-71 -109 -172 -317 -159 -329 2 -2 47 9 101 25 l98 29
-2 159 c-1 87 -3 160 -5 161 -1 1 -16 -19 -33 -45z"/>
<path d="M2025 2039 c-38 -5 -104 -17 -145 -27 l-75 -17 23 -23 c24 -24 57
-28 106 -13 17 6 88 22 159 38 121 26 160 43 100 43 -16 0 -44 2 -63 4 -19 2
-66 0 -105 -5z"/>
<path d="M1543 1977 c-75 -23 -103 -35 -103 -47 0 -14 20 -9 120 24 66 23 120
44 120 49 0 12 -29 6 -137 -26z"/>
<path d="M2155 1974 c-370 -88 -621 -125 -639 -95 -4 6 -1 11 6 11 26 1 210
28 214 33 2 2 -5 12 -16 22 -20 18 -24 18 -156 -25 l-136 -45 7 -45 c20 -129
131 -221 311 -255 267 -52 523 49 610 240 29 63 27 105 -7 149 -35 44 -45 45
-194 10z"/>
<path d="M3317 1298 c-23 -18 -37 -62 -37 -114 0 -84 48 -132 106 -105 23 10
24 15 24 104 0 78 -3 97 -18 110 -22 20 -52 22 -75 5z"/>
<path d="M280 1335 l0 -85 31 0 c42 0 89 47 89 90 0 43 -39 80 -85 80 l-35 0
0 -85z"/>
<path d="M938 1179 c-24 -12 -40 -29 -44 -46 -13 -50 27 -78 71 -49 19 13 23
24 23 66 1 27 -2 50 -6 50 -4 -1 -24 -10 -44 -21z"/>
<path d="M2169 1291 c-44 -36 -35 -196 13 -222 59 -32 102 27 96 132 -5 100
-51 137 -109 90z"/>
<path d="M3045 1177 c-34 -19 -40 -27 -40 -56 0 -45 25 -62 63 -41 23 14 27
23 30 68 2 29 -1 52 -5 52 -4 0 -26 -11 -48 -23z"/>
<path d="M3642 1303 c-39 -16 -57 -145 -27 -203 27 -52 84 -51 111 2 22 43 16
158 -10 187 -18 20 -46 25 -74 14z"/>
<path d="M911 746 c-17 -20 -10 -77 12 -90 25 -16 51 4 55 43 4 36 -12 61 -38
61 -10 0 -23 -6 -29 -14z"/>
<path d="M1561 746 c-17 -20 -10 -77 12 -90 25 -16 51 4 55 43 4 36 -12 61
-38 61 -10 0 -23 -6 -29 -14z"/>
<path d="M3628 735 c-23 -51 20 -106 57 -75 18 15 20 71 3 88 -20 20 -48 14
-60 -13z"/>
<path d="M1393 684 c-3 -8 -1 -20 5 -26 16 -16 47 -5 50 20 3 18 -1 22 -23 22
-14 0 -28 -7 -32 -16z"/>
<path d="M1720 741 c-24 -45 -6 -91 35 -91 30 0 45 19 45 55 0 17 -5 36 -12
43 -18 18 -56 14 -68 -7z"/>
<path d="M2512 748 c-21 -21 -13 -28 28 -28 28 0 40 4 40 14 0 25 -47 35 -68
14z"/>
<path d="M3030 741 c-24 -45 -6 -91 35 -91 30 0 45 19 45 55 0 17 -5 36 -12
43 -18 18 -56 14 -68 -7z"/>
<path d="M3473 684 c-3 -8 -1 -20 5 -26 16 -16 47 -5 50 20 3 18 -1 22 -23 22
-14 0 -28 -7 -32 -16z"/>
<path d="M3800 741 c-24 -45 -6 -91 35 -91 30 0 45 19 45 55 0 17 -5 36 -12
43 -18 18 -56 14 -68 -7z"/>
</g>
</svg>
